<svg width="36" height="37" viewBox="0 0 36 37" fill="none" xmlns="http://www.w3.org/2000/svg">
<rect y="0.5" width="36" height="36" rx="12" fill="#F6EEFF"/>
<path d="M17.9999 18.384L26.1306 13.9491C25.872 13.0983 25.3475 12.3528 24.6341 11.822C23.9206 11.2912 23.0558 11.0031 22.1666 11H13.8333C12.944 11.0031 12.0792 11.2912 11.3658 11.822C10.6524 12.3528 10.1278 13.0983 9.86926 13.9491L17.9999 18.384Z" fill="#6418C3"/>
<path d="M18.3992 20.0649C18.2768 20.1317 18.1396 20.1666 18.0001 20.1666C17.8606 20.1666 17.7234 20.1317 17.6009 20.0649L9.66675 15.7372V21.8333C9.66805 22.938 10.1075 23.997 10.8886 24.7782C11.6697 25.5593 12.7287 25.9987 13.8334 26H22.1667C23.2714 25.9987 24.3305 25.5593 25.1116 24.7782C25.8927 23.997 26.3321 22.938 26.3334 21.8333V15.7372L18.3992 20.0649Z" fill="#6418C3"/>
</svg>
