<svg width="36" height="37" viewBox="0 0 36 37" fill="none" xmlns="http://www.w3.org/2000/svg">
<rect y="0.5" width="36" height="36" rx="12" fill="#F6EEFF"/>
<path d="M24.2961 21.8368L22.2716 20.4223C22.0068 20.2377 21.6974 20.1403 21.3765 20.1403C20.8662 20.1403 20.3872 20.3906 20.0955 20.8093L19.6255 21.4828C18.8379 20.9545 17.959 20.2169 17.1211 19.3792C16.2834 18.5415 15.5459 17.6626 15.0178 16.8749L15.6911 16.405C16.0342 16.166 16.2634 15.808 16.3362 15.3973C16.4088 14.9868 16.3173 14.5721 16.078 14.2288L14.6638 12.2042C14.3681 11.7813 13.891 11.5286 13.3873 11.5286C13.2127 11.5286 13.0415 11.5594 12.8786 11.6195C12.6935 11.6879 12.521 11.7718 12.352 11.878L12.0724 12.0748C12.0025 12.1292 11.9375 12.1887 11.8753 12.2509C11.5343 12.5918 11.2922 13.0233 11.1557 13.5336C10.5729 15.718 12.0166 19.0212 14.7479 21.7526C17.0416 24.0463 19.7972 25.4711 21.9391 25.4714H21.9392C22.306 25.4714 22.6518 25.4287 22.9671 25.3445C23.4773 25.2081 23.9088 24.9661 24.25 24.6249C24.312 24.5629 24.3712 24.4979 24.4346 24.4158L24.6316 24.1348C24.7279 23.981 24.8117 23.8085 24.881 23.6221C25.1192 22.9781 24.8787 22.2439 24.2961 21.8368Z" fill="#6418C3"/>
</svg>
